<?xml version="1.0" standalone="no"?>
<!DOCTYPE svg PUBLIC "-//W3C//DTD SVG 20010904//EN"
 "http://www.w3.org/TR/2001/REC-SVG-20010904/DTD/svg10.dtd">
<svg version="1.0" xmlns="http://www.w3.org/2000/svg"
 width="2000.000000pt" height="2000.000000pt" viewBox="0 0 2000.000000 2000.000000"
 preserveAspectRatio="xMidYMid meet">
<metadata>
Created by potrace 1.11, written by Peter Selinger 2001-2013
</metadata>
<g transform="translate(0.000000,2000.000000) scale(0.100000,-0.100000)"
fill="#000000" stroke="none">
<path d="M9460 19929 c-1632 -90 -3187 -566 -4580 -1402 -435 -261 -921 -610
-1300 -931 -323 -274 -751 -691 -1007 -981 -492 -556 -906 -1139 -1266 -1780
-119 -211 -355 -694 -455 -930 -438 -1031 -685 -2056 -772 -3210 -18 -227 -24
-923 -11 -1170 91 -1739 590 -3326 1507 -4797 574 -921 1375 -1815 2239 -2500
752 -596 1594 -1086 2472 -1439 1002 -403 2020 -629 3143 -700 238 -15 882
-15 1120 0 776 49 1477 167 2175 366 257 73 701 226 955 328 2397 962 4321
2810 5384 5172 163 362 368 926 481 1320 403 1413 487 2920 244 4380 -250
1495 -831 2893 -1722 4140 -516 721 -1182 1422 -1882 1980 -1122 895 -2407
1530 -3791 1874 -611 152 -1236 245 -1889 281 -216 11 -828 11 -1045 -1z
m1035 -869 c1014 -59 1989 -276 2898 -646 2877 -1170 4959 -3724 5516 -6767
275 -1503 165 -3068 -319 -4517 -547 -1639 -1574 -3110 -2930 -4196 -1897
-1521 -4311 -2213 -6730 -1929 -1566 184 -3053 772 -4320 1708 -1973 1459
-3269 3641 -3599 6057 -55 404 -71 629 -78 1100 -6 422 2 659 33 990 249 2693
1700 5136 3954 6662 1348 913 2898 1437 4545 1537 192 12 834 12 1030 1z"/>
<path d="M5765 17024 c-587 -357 -1058 -726 -1546 -1214 -327 -326 -525 -553
-772 -885 -831 -1116 -1366 -2427 -1552 -3800 -42 -317 -75 -750 -75 -1007 l0
-108 2840 0 2840 0 0 58 c0 101 21 294 45 427 90 486 329 938 685 1295 124
124 232 212 391 320 l117 78 -1414 2458 c-778 1352 -1415 2459 -1417 2460 -1
2 -65 -36 -142 -82z"/>
<path d="M14033 17033 c-1235 -2143 -2776 -4827 -2777 -4837 0 -8 49 -47 111
-89 667 -447 1075 -1166 1110 -1954 l6 -143 2840 0 2840 0 -6 248 c-32 1299
-389 2603 -1028 3752 -572 1029 -1364 1924 -2324 2625 -215 157 -694 465 -723
465 -6 0 -28 -30 -49 -67z"/>
<path d="M9835 11619 c-622 -65 -1144 -478 -1349 -1068 -66 -191 -80 -279 -80
-516 -1 -224 8 -287 61 -464 133 -446 472 -823 904 -1006 356 -151 778 -165
1142 -39 681 237 1121 906 1067 1622 -31 401 -198 755 -492 1038 -332 319
-798 480 -1253 433z"/>
<path d="M8732 7838 c-164 -271 -2811 -4892 -2805 -4898 17 -16 316 -175 478
-254 1444 -707 3026 -970 4625 -771 927 116 1877 412 2715 844 253 131 310
165 309 182 -1 16 -2808 4885 -2829 4907 -10 11 -32 3 -123 -42 -700 -353
-1538 -350 -2237 8 -55 28 -103 52 -106 54 -4 2 -16 -12 -27 -30z"/>
</g>
</svg>
